<?xml version="1.0" encoding="UTF-8"?>
<svg id="Camada_2" data-name="Camada 2" xmlns="http://www.w3.org/2000/svg" viewBox="0 0 1214.48 821.56">
  <g id="Camada_1-2" data-name="Camada 1">
    <g>
      <text transform="translate(0 105)" fill="#1d1d1b" font-family="NiveauGroteskBold, &apos;Niveau Grotesk&apos;" font-size="125"><tspan x="0" y="0" letter-spacing="0em">H</tspan><tspan x="91.75" y="0">eadline 1</tspan></text>
      <text transform="translate(8 164.86)" fill="#2f64e0" font-family="Inter-Light, &apos;Inter Light&apos;" font-size="18.13" font-variation-settings="&apos;" font-weight="300"><tspan x="0" y="0" letter-spacing="-.02em">P</tspan><tspan x="9.19" y="0">eso</tspan></text>
      <text transform="translate(131.7 164.86)" fill="#2f64e0" font-family="Inter-Light, &apos;Inter Light&apos;" font-size="18.13" font-variation-settings="&apos;" font-weight="300"><tspan x="0" y="0" letter-spacing="-.06em">T</tspan><tspan x="7.85" y="0" letter-spacing="0em">amanho</tspan></text>
      <text transform="translate(246.56 164.86)" fill="#2f64e0" font-family="Inter-Light, &apos;Inter Light&apos;" font-size="18.13" font-variation-settings="&apos;" font-weight="300"><tspan x="0" y="0" letter-spacing="-.05em">T</tspan><tspan x="8.2" y="0" letter-spacing="0em">r</tspan><tspan x="14.03" y="0">ac</tspan><tspan x="30.9" y="0" letter-spacing=".02em">k</tspan><tspan x="39.71" y="0">ing</tspan></text>
      <text transform="translate(357.3 164.86)" fill="#2f64e0" font-family="Inter-Light, &apos;Inter Light&apos;" font-size="18.13" font-variation-settings="&apos;" font-weight="300"><tspan x="0" y="0">E</tspan><tspan x="8.92" y="0" letter-spacing="0em">n</tspan><tspan x="18.91" y="0">t</tspan><tspan x="24.91" y="0" letter-spacing="0em">r</tspan><tspan x="30.66" y="0">elinhas</tspan></text>
      <text transform="translate(8 193.55)" font-family="Inter-Medium, &apos;Inter Medium&apos;" font-size="18.13" font-variation-settings="&apos;" font-weight="500"><tspan x="0" y="0" letter-spacing="0em">B</tspan><tspan x="9.9" y="0">old</tspan></text>
      <text transform="translate(131.7 193.55)" font-family="Inter-Medium, &apos;Inter Medium&apos;" font-size="18.13" font-variation-settings="&apos;" font-weight="500"><tspan x="0" y="0">125 </tspan><tspan x="31.75" y="0" letter-spacing="-.01em">p</tspan><tspan x="41.81" y="0" letter-spacing="0em">x</tspan></text>
      <text transform="translate(357.3 193.55)" font-family="Inter-Medium, &apos;Inter Medium&apos;" font-size="18.13" font-variation-settings="&apos;" font-weight="500"><tspan x="0" y="0">123 </tspan><tspan x="31.75" y="0" letter-spacing="-.01em">p</tspan><tspan x="41.81" y="0" letter-spacing="0em">x</tspan></text>
      <text transform="translate(246.56 193.55)" font-family="Inter-Medium, &apos;Inter Medium&apos;" font-size="18.13" font-variation-settings="&apos;" font-weight="500"><tspan x="0" y="0">0%</tspan></text>
      <text transform="translate(2 342.51)" fill="#1d1d1b" font-family="NiveauGroteskBold, &apos;Niveau Grotesk&apos;" font-size="99"><tspan x="0" y="0" letter-spacing="0em">H</tspan><tspan x="72.67" y="0">eadline 2</tspan></text>
      <text transform="translate(8 396.77)" fill="#2f64e0" font-family="Inter-Light, &apos;Inter Light&apos;" font-size="18.13" font-variation-settings="&apos;" font-weight="300"><tspan x="0" y="0" letter-spacing="-.02em">P</tspan><tspan x="9.19" y="0">eso</tspan></text>
      <text transform="translate(131.7 396.77)" fill="#2f64e0" font-family="Inter-Light, &apos;Inter Light&apos;" font-size="18.13" font-variation-settings="&apos;" font-weight="300"><tspan x="0" y="0" letter-spacing="-.06em">T</tspan><tspan x="7.85" y="0" letter-spacing="0em">amanho</tspan></text>
      <text transform="translate(246.56 396.77)" fill="#2f64e0" font-family="Inter-Light, &apos;Inter Light&apos;" font-size="18.13" font-variation-settings="&apos;" font-weight="300"><tspan x="0" y="0" letter-spacing="-.05em">T</tspan><tspan x="8.2" y="0" letter-spacing="0em">r</tspan><tspan x="14.03" y="0">ac</tspan><tspan x="30.9" y="0" letter-spacing=".02em">k</tspan><tspan x="39.71" y="0">ing</tspan></text>
      <text transform="translate(357.3 396.77)" fill="#2f64e0" font-family="Inter-Light, &apos;Inter Light&apos;" font-size="18.13" font-variation-settings="&apos;" font-weight="300"><tspan x="0" y="0">E</tspan><tspan x="8.92" y="0" letter-spacing="0em">n</tspan><tspan x="18.91" y="0">t</tspan><tspan x="24.91" y="0" letter-spacing="0em">r</tspan><tspan x="30.66" y="0">elinhas</tspan></text>
      <text transform="translate(8 425.46)" font-family="Inter-Medium, &apos;Inter Medium&apos;" font-size="18.13" font-variation-settings="&apos;" font-weight="500"><tspan x="0" y="0" letter-spacing="0em">B</tspan><tspan x="9.9" y="0">old</tspan></text>
      <text transform="translate(131.7 425.46)" font-family="Inter-Medium, &apos;Inter Medium&apos;" font-size="18.13" font-variation-settings="&apos;" font-weight="500"><tspan x="0" y="0">99 </tspan><tspan x="22.45" y="0" letter-spacing="-.01em">p</tspan><tspan x="32.51" y="0">x</tspan></text>
      <text transform="translate(357.3 425.46)" font-family="Inter-Medium, &apos;Inter Medium&apos;" font-size="18.13" font-variation-settings="&apos;" font-weight="500"><tspan x="0" y="0">97 </tspan><tspan x="22.45" y="0" letter-spacing="-.01em">p</tspan><tspan x="32.51" y="0">x</tspan></text>
      <text transform="translate(246.56 425.46)" font-family="Inter-Medium, &apos;Inter Medium&apos;" font-size="18.13" font-variation-settings="&apos;" font-weight="500"><tspan x="0" y="0">0%</tspan></text>
      <text transform="translate(4 558.45)" fill="#1d1d1b" font-family="NiveauGroteskBold, &apos;Niveau Grotesk&apos;" font-size="80"><tspan x="0" y="0" letter-spacing="0em">H</tspan><tspan x="58.72" y="0" letter-spacing="0em">eadline 3</tspan></text>
      <text transform="translate(8 604.31)" fill="#2f64e0" font-family="Inter-Light, &apos;Inter Light&apos;" font-size="18.13" font-variation-settings="&apos;" font-weight="300"><tspan x="0" y="0" letter-spacing="-.02em">P</tspan><tspan x="9.19" y="0">eso</tspan></text>
      <text transform="translate(131.7 604.31)" fill="#2f64e0" font-family="Inter-Light, &apos;Inter Light&apos;" font-size="18.13" font-variation-settings="&apos;" font-weight="300"><tspan x="0" y="0" letter-spacing="-.06em">T</tspan><tspan x="7.85" y="0" letter-spacing="0em">amanho</tspan></text>
      <text transform="translate(246.56 604.31)" fill="#2f64e0" font-family="Inter-Light, &apos;Inter Light&apos;" font-size="18.13" font-variation-settings="&apos;" font-weight="300"><tspan x="0" y="0" letter-spacing="-.05em">T</tspan><tspan x="8.2" y="0" letter-spacing="0em">r</tspan><tspan x="14.03" y="0">ac</tspan><tspan x="30.9" y="0" letter-spacing=".02em">k</tspan><tspan x="39.71" y="0">ing</tspan></text>
      <text transform="translate(357.3 604.31)" fill="#2f64e0" font-family="Inter-Light, &apos;Inter Light&apos;" font-size="18.13" font-variation-settings="&apos;" font-weight="300"><tspan x="0" y="0">E</tspan><tspan x="8.92" y="0" letter-spacing="0em">n</tspan><tspan x="18.91" y="0">t</tspan><tspan x="24.91" y="0" letter-spacing="0em">r</tspan><tspan x="30.66" y="0">elinhas</tspan></text>
      <text transform="translate(8 633)" font-family="Inter-Medium, &apos;Inter Medium&apos;" font-size="18.13" font-variation-settings="&apos;" font-weight="500"><tspan x="0" y="0" letter-spacing="0em">B</tspan><tspan x="9.9" y="0">old</tspan></text>
      <text transform="translate(131.7 633)" font-family="Inter-Medium, &apos;Inter Medium&apos;" font-size="18.13" font-variation-settings="&apos;" font-weight="500"><tspan x="0" y="0">80 </tspan><tspan x="22.45" y="0" letter-spacing="-.01em">p</tspan><tspan x="32.51" y="0">x</tspan></text>
      <text transform="translate(357.3 633)" font-family="Inter-Medium, &apos;Inter Medium&apos;" font-size="18.13" font-variation-settings="&apos;" font-weight="500"><tspan x="0" y="0">77 </tspan><tspan x="22.45" y="0" letter-spacing="-.01em">p</tspan><tspan x="32.51" y="0">x</tspan></text>
      <text transform="translate(246.56 633)" font-family="Inter-Medium, &apos;Inter Medium&apos;" font-size="18.13" font-variation-settings="&apos;" font-weight="500"><tspan x="0" y="0">0%</tspan></text>
      <text transform="translate(5 750.88)" fill="#1d1d1b" font-family="NiveauGroteskBold, &apos;Niveau Grotesk&apos;" font-size="62"><tspan x="0" y="0" letter-spacing="0em">H</tspan><tspan x="45.51" y="0" letter-spacing="0em">eadline 4</tspan></text>
      <text transform="translate(8 788.34)" fill="#2f64e0" font-family="Inter-Light, &apos;Inter Light&apos;" font-size="18.13" font-variation-settings="&apos;" font-weight="300"><tspan x="0" y="0" letter-spacing="-.02em">P</tspan><tspan x="9.19" y="0">eso</tspan></text>
      <text transform="translate(131.7 788.34)" fill="#2f64e0" font-family="Inter-Light, &apos;Inter Light&apos;" font-size="18.13" font-variation-settings="&apos;" font-weight="300"><tspan x="0" y="0" letter-spacing="-.06em">T</tspan><tspan x="7.85" y="0" letter-spacing="0em">amanho</tspan></text>
      <text transform="translate(246.56 788.34)" fill="#2f64e0" font-family="Inter-Light, &apos;Inter Light&apos;" font-size="18.13" font-variation-settings="&apos;" font-weight="300"><tspan x="0" y="0" letter-spacing="-.05em">T</tspan><tspan x="8.2" y="0" letter-spacing="0em">r</tspan><tspan x="14.03" y="0">ac</tspan><tspan x="30.9" y="0" letter-spacing=".02em">k</tspan><tspan x="39.71" y="0">ing</tspan></text>
      <text transform="translate(357.3 788.34)" fill="#2f64e0" font-family="Inter-Light, &apos;Inter Light&apos;" font-size="18.13" font-variation-settings="&apos;" font-weight="300"><tspan x="0" y="0">E</tspan><tspan x="8.92" y="0" letter-spacing="0em">n</tspan><tspan x="18.91" y="0">t</tspan><tspan x="24.91" y="0" letter-spacing="0em">r</tspan><tspan x="30.66" y="0">elinhas</tspan></text>
      <text transform="translate(8 817.03)" font-family="Inter-Medium, &apos;Inter Medium&apos;" font-size="18.13" font-variation-settings="&apos;" font-weight="500"><tspan x="0" y="0" letter-spacing="0em">B</tspan><tspan x="9.9" y="0">old</tspan></text>
      <text transform="translate(131.7 817.03)" font-family="Inter-Medium, &apos;Inter Medium&apos;" font-size="18.13" font-variation-settings="&apos;" font-weight="500"><tspan x="0" y="0">62 </tspan><tspan x="22.45" y="0" letter-spacing="-.01em">p</tspan><tspan x="32.51" y="0">x</tspan></text>
      <text transform="translate(357.3 817.03)" font-family="Inter-Medium, &apos;Inter Medium&apos;" font-size="18.13" font-variation-settings="&apos;" font-weight="500"><tspan x="0" y="0">59 </tspan><tspan x="22.45" y="0" letter-spacing="-.01em">p</tspan><tspan x="32.51" y="0">x</tspan></text>
      <text transform="translate(246.56 817.03)" font-family="Inter-Medium, &apos;Inter Medium&apos;" font-size="18.13" font-variation-settings="&apos;" font-weight="500"><tspan x="0" y="0">0%</tspan></text>
      <text transform="translate(780.87 107.64)" fill="#2f64e0" font-family="Inter-Light, &apos;Inter Light&apos;" font-size="18.13" font-variation-settings="&apos;" font-weight="300"><tspan x="0" y="0" letter-spacing="-.02em">P</tspan><tspan x="9.19" y="0">eso</tspan></text>
      <text transform="translate(780.87 745.58)" fill="#1d1d1b" font-family="Poppins-Regular, Poppins" font-size="42"><tspan x="0" y="0">body</tspan><tspan x="107.31" y="0" letter-spacing="-.03em"> </tspan><tspan x="118.52" y="0">2</tspan></text>
      <text transform="translate(780.87 783.04)" fill="#2f64e0" font-family="Inter-Light, &apos;Inter Light&apos;" font-size="18.13" font-variation-settings="&apos;" font-weight="300"><tspan x="0" y="0" letter-spacing="-.02em">P</tspan><tspan x="9.19" y="0">eso</tspan></text>
      <text transform="translate(904.57 783.04)" fill="#2f64e0" font-family="Inter-Light, &apos;Inter Light&apos;" font-size="18.13" font-variation-settings="&apos;" font-weight="300"><tspan x="0" y="0" letter-spacing="-.06em">T</tspan><tspan x="7.85" y="0" letter-spacing="0em">amanho</tspan></text>
      <text transform="translate(1019.43 783.04)" fill="#2f64e0" font-family="Inter-Light, &apos;Inter Light&apos;" font-size="18.13" font-variation-settings="&apos;" font-weight="300"><tspan x="0" y="0" letter-spacing="-.05em">T</tspan><tspan x="8.2" y="0" letter-spacing="0em">r</tspan><tspan x="14.03" y="0">ac</tspan><tspan x="30.9" y="0" letter-spacing=".02em">k</tspan><tspan x="39.71" y="0">ing</tspan></text>
      <text transform="translate(1130.17 783.04)" fill="#2f64e0" font-family="Inter-Light, &apos;Inter Light&apos;" font-size="18.13" font-variation-settings="&apos;" font-weight="300"><tspan x="0" y="0">E</tspan><tspan x="8.92" y="0" letter-spacing="0em">n</tspan><tspan x="18.91" y="0">t</tspan><tspan x="24.91" y="0" letter-spacing="0em">r</tspan><tspan x="30.66" y="0">elinhas</tspan></text>
      <text transform="translate(780.87 811.73)" font-family="Inter-Medium, &apos;Inter Medium&apos;" font-size="18.13" font-variation-settings="&apos;" font-weight="500"><tspan x="0" y="0" letter-spacing="0em">R</tspan><tspan x="9.83" y="0">egular</tspan></text>
      <text transform="translate(904.57 811.73)" font-family="Inter-Medium, &apos;Inter Medium&apos;" font-size="18.13" font-variation-settings="&apos;" font-weight="500"><tspan x="0" y="0">42 </tspan><tspan x="22.45" y="0" letter-spacing="-.01em">p</tspan><tspan x="32.51" y="0">x</tspan></text>
      <text transform="translate(1130.17 811.73)" font-family="Inter-Medium, &apos;Inter Medium&apos;" font-size="18.13" font-variation-settings="&apos;" font-weight="500"><tspan x="0" y="0">46 </tspan><tspan x="22.45" y="0" letter-spacing="-.01em">p</tspan><tspan x="32.51" y="0">x</tspan></text>
      <text transform="translate(1019.43 811.73)" font-family="Inter-Medium, &apos;Inter Medium&apos;" font-size="18.13" font-variation-settings="&apos;" font-weight="500"><tspan x="0" y="0">0%</tspan></text>
      <text transform="translate(780.87 513.94)" fill="#1d1d1b" font-family="Poppins-Regular, Poppins" font-size="53"><tspan x="0" y="0">body</tspan><tspan x="135.41" y="0" letter-spacing="-.03em"> </tspan><tspan x="149.56" y="0">1</tspan></text>
      <text transform="translate(780.87 551.39)" fill="#2f64e0" font-family="Inter-Light, &apos;Inter Light&apos;" font-size="18.13" font-variation-settings="&apos;" font-weight="300"><tspan x="0" y="0" letter-spacing="-.02em">P</tspan><tspan x="9.19" y="0">eso</tspan></text>
      <text transform="translate(904.57 551.39)" fill="#2f64e0" font-family="Inter-Light, &apos;Inter Light&apos;" font-size="18.13" font-variation-settings="&apos;" font-weight="300"><tspan x="0" y="0" letter-spacing="-.06em">T</tspan><tspan x="7.85" y="0" letter-spacing="0em">amanho</tspan></text>
      <text transform="translate(1019.43 551.39)" fill="#2f64e0" font-family="Inter-Light, &apos;Inter Light&apos;" font-size="18.13" font-variation-settings="&apos;" font-weight="300"><tspan x="0" y="0" letter-spacing="-.05em">T</tspan><tspan x="8.2" y="0" letter-spacing="0em">r</tspan><tspan x="14.03" y="0">ac</tspan><tspan x="30.9" y="0" letter-spacing=".02em">k</tspan><tspan x="39.71" y="0">ing</tspan></text>
      <text transform="translate(1130.17 551.39)" fill="#2f64e0" font-family="Inter-Light, &apos;Inter Light&apos;" font-size="18.13" font-variation-settings="&apos;" font-weight="300"><tspan x="0" y="0">E</tspan><tspan x="8.92" y="0" letter-spacing="0em">n</tspan><tspan x="18.91" y="0">t</tspan><tspan x="24.91" y="0" letter-spacing="0em">r</tspan><tspan x="30.66" y="0">elinhas</tspan></text>
      <text transform="translate(780.87 580.08)" font-family="Inter-Medium, &apos;Inter Medium&apos;" font-size="18.13" font-variation-settings="&apos;" font-weight="500"><tspan x="0" y="0" letter-spacing="0em">R</tspan><tspan x="9.83" y="0">egular</tspan></text>
      <text transform="translate(904.57 580.08)" font-family="Inter-Medium, &apos;Inter Medium&apos;" font-size="18.13" font-variation-settings="&apos;" font-weight="500"><tspan x="0" y="0">53 </tspan><tspan x="22.45" y="0" letter-spacing="-.01em">p</tspan><tspan x="32.51" y="0">x</tspan></text>
      <text transform="translate(1130.17 580.08)" font-family="Inter-Medium, &apos;Inter Medium&apos;" font-size="18.13" font-variation-settings="&apos;" font-weight="500"><tspan x="0" y="0">57 </tspan><tspan x="22.45" y="0" letter-spacing="-.01em">p</tspan><tspan x="32.51" y="0">x</tspan></text>
      <text transform="translate(1019.43 580.08)" font-family="Inter-Medium, &apos;Inter Medium&apos;" font-size="18.13" font-variation-settings="&apos;" font-weight="500"><tspan x="0" y="0">0%</tspan></text>
      <text transform="translate(780.87 276.94)" fill="#1d1d1b" font-family="Poppins-Regular, Poppins" font-size="30"><tspan x="0" y="0">Overline</tspan></text>
      <text transform="translate(780.87 314.4)" fill="#2f64e0" font-family="Inter-Light, &apos;Inter Light&apos;" font-size="18.13" font-variation-settings="&apos;" font-weight="300"><tspan x="0" y="0" letter-spacing="-.02em">P</tspan><tspan x="9.19" y="0">eso</tspan></text>
      <text transform="translate(904.57 314.4)" fill="#2f64e0" font-family="Inter-Light, &apos;Inter Light&apos;" font-size="18.13" font-variation-settings="&apos;" font-weight="300"><tspan x="0" y="0" letter-spacing="-.06em">T</tspan><tspan x="7.85" y="0" letter-spacing="0em">amanho</tspan></text>
      <text transform="translate(1019.43 314.4)" fill="#2f64e0" font-family="Inter-Light, &apos;Inter Light&apos;" font-size="18.13" font-variation-settings="&apos;" font-weight="300"><tspan x="0" y="0" letter-spacing="-.05em">T</tspan><tspan x="8.2" y="0" letter-spacing="0em">r</tspan><tspan x="14.03" y="0">ac</tspan><tspan x="30.9" y="0" letter-spacing=".02em">k</tspan><tspan x="39.71" y="0">ing</tspan></text>
      <text transform="translate(1130.17 314.4)" fill="#2f64e0" font-family="Inter-Light, &apos;Inter Light&apos;" font-size="18.13" font-variation-settings="&apos;" font-weight="300"><tspan x="0" y="0">E</tspan><tspan x="8.92" y="0" letter-spacing="0em">n</tspan><tspan x="18.91" y="0">t</tspan><tspan x="24.91" y="0" letter-spacing="0em">r</tspan><tspan x="30.66" y="0">elinhas</tspan></text>
      <text transform="translate(780.87 343.09)" font-family="Inter-Medium, &apos;Inter Medium&apos;" font-size="18.13" font-variation-settings="&apos;" font-weight="500"><tspan x="0" y="0" letter-spacing="0em">R</tspan><tspan x="9.83" y="0">egular</tspan></text>
      <text transform="translate(904.57 343.09)" font-family="Inter-Medium, &apos;Inter Medium&apos;" font-size="18.13" font-variation-settings="&apos;" font-weight="500"><tspan x="0" y="0">30 - 100 </tspan><tspan x="63.6" y="0" letter-spacing="-.01em">p</tspan><tspan x="73.67" y="0">x</tspan></text>
      <text transform="translate(1130.17 343.09)" font-family="Inter-Medium, &apos;Inter Medium&apos;" font-size="18.13" font-variation-settings="&apos;" font-weight="500"><tspan x="0" y="0">34 - 104 </tspan><tspan x="63.6" y="0" letter-spacing="-.01em">p</tspan><tspan x="73.67" y="0">x</tspan></text>
      <text transform="translate(1019.43 343.09)" font-family="Inter-Medium, &apos;Inter Medium&apos;" font-size="18.13" font-variation-settings="&apos;" font-weight="500"><tspan x="0" y="0">0%</tspan></text>
      <text transform="translate(780.87 59.5)" fill="#1d1d1b" font-family="Poppins-Regular, Poppins" font-size="70"><tspan x="0" y="0">Subtitle</tspan></text>
      <text transform="translate(904.57 96.96)" fill="#2f64e0" font-family="Inter-Light, &apos;Inter Light&apos;" font-size="18.13" font-variation-settings="&apos;" font-weight="300"><tspan x="0" y="0" letter-spacing="-.06em">T</tspan><tspan x="7.85" y="0" letter-spacing="0em">amanho</tspan></text>
      <text transform="translate(1019.43 96.96)" fill="#2f64e0" font-family="Inter-Light, &apos;Inter Light&apos;" font-size="18.13" font-variation-settings="&apos;" font-weight="300"><tspan x="0" y="0" letter-spacing="-.05em">T</tspan><tspan x="8.2" y="0" letter-spacing="0em">r</tspan><tspan x="14.03" y="0">ac</tspan><tspan x="30.9" y="0" letter-spacing=".02em">k</tspan><tspan x="39.71" y="0">ing</tspan></text>
      <text transform="translate(1130.17 96.96)" fill="#2f64e0" font-family="Inter-Light, &apos;Inter Light&apos;" font-size="18.13" font-variation-settings="&apos;" font-weight="300"><tspan x="0" y="0">E</tspan><tspan x="8.92" y="0" letter-spacing="0em">n</tspan><tspan x="18.91" y="0">t</tspan><tspan x="24.91" y="0" letter-spacing="0em">r</tspan><tspan x="30.66" y="0">elinhas</tspan></text>
      <text transform="translate(780.87 125.65)" font-family="Inter-Medium, &apos;Inter Medium&apos;" font-size="18.13" font-variation-settings="&apos;" font-weight="500"><tspan x="0" y="0" letter-spacing="0em">R</tspan><tspan x="9.83" y="0">egular</tspan></text>
      <text transform="translate(904.57 125.65)" font-family="Inter-Medium, &apos;Inter Medium&apos;" font-size="18.13" font-variation-settings="&apos;" font-weight="500"><tspan x="0" y="0">40 -70 </tspan><tspan x="50.46" y="0" letter-spacing="-.01em">p</tspan><tspan x="60.52" y="0" letter-spacing="0em">x</tspan></text>
      <text transform="translate(1130.17 125.65)" font-family="Inter-Medium, &apos;Inter Medium&apos;" font-size="18.13" font-variation-settings="&apos;" font-weight="500"><tspan x="0" y="0">44-74 </tspan><tspan x="46.61" y="0" letter-spacing="-.01em">p</tspan><tspan x="56.68" y="0" letter-spacing="0em">x</tspan></text>
      <text transform="translate(1019.43 125.65)" font-family="Inter-Medium, &apos;Inter Medium&apos;" font-size="18.13" font-variation-settings="&apos;" font-weight="500"><tspan x="0" y="0">0%</tspan></text>
    </g>
  </g>
</svg>