<?xml version="1.0" encoding="UTF-8"?>
<svg id="Camada_2" data-name="Camada 2" xmlns="http://www.w3.org/2000/svg" viewBox="0 0 138.08 139.1">
  <g id="Camada_1-2" data-name="Camada 1">
    <g>
      <path d="M1.22,51.06c-6.08,46.32,10.75,74.77,47.7,85.51,32.31,9.4,69.84-7.77,86.11-46.6,10.61-36.48-6.69-71.33-47.7-85.51C50.38-6.29,12.75-.12,1.22,51.06Z" fill="#f9e6f6"/>
      <path d="M57.83,108.66c-1.09,0-2.15-.58-2.71-1.6l-21.09-38.38c-2.88-5.23-3.54-11.28-1.87-17.01,1.67-5.73,5.47-10.48,10.7-13.35,5.15-2.84,11.36-3.52,17.01-1.88,5.73,1.67,10.48,5.47,13.35,10.71l1.04,1.89,1.89-1.04c2.58-1.42,5.38-2.31,8.32-2.63,2.92-.32,5.85-.07,8.69.76,2.84.82,5.44,2.18,7.74,4.02,2.3,1.85,4.19,4.09,5.61,6.68,1.42,2.58,2.3,5.38,2.63,8.32.32,2.93.07,5.86-.75,8.69-.83,2.84-2.18,5.44-4.02,7.74-1.85,2.3-4.09,4.19-6.68,5.61l-38.38,21.09c-.47.26-.98.38-1.48.38ZM53.65,41.74c-2.71,0-5.42.68-7.82,1.99-3.79,2.08-6.54,5.51-7.75,9.66-1.21,4.15-.73,8.52,1.35,12.31l19.6,35.67,35.67-19.6c1.87-1.03,3.5-2.4,4.84-4.06,1.33-1.66,2.31-3.55,2.91-5.6.59-2.05.78-4.16.54-6.29-.24-2.13-.87-4.15-1.9-6.02t0,0c-1.03-1.87-2.39-3.5-4.06-4.84-1.67-1.34-3.55-2.32-5.6-2.91-2.05-.6-4.16-.79-6.29-.55-2.12.23-4.15.87-6.02,1.9l-4.61,2.53c-1.49.82-3.38.28-4.19-1.22l-2.53-4.6c-2.08-3.79-5.51-6.54-9.66-7.75-1.46-.43-2.98-.63-4.49-.63Z" fill="#fc4ade"/>
    </g>
  </g>
</svg>