<?xml version="1.0" encoding="UTF-8"?>
<svg id="Camada_2" data-name="Camada 2" xmlns="http://www.w3.org/2000/svg" viewBox="0 0 84.65 75.8">
  <g id="Camada_1-2" data-name="Camada 1">
    <g>
      <path d="M37.2,74.09l-13.32-24.49c-1.55-1.5-.48-3.95,1.28-4.27,1.5-.29,2.63.61,3.02,1.81l13.04,23.98c1.2,1.19.88,3.23-.66,3.98-1.31.64-2.73.14-3.36-1.01Z" fill="#1876f2"/>
      <path d="M36.77,72.98c0-.7.29-1.33.75-1.78l7.59-12.44c.71-1.17,2.23-1.53,3.4-.82,1.17.71,1.53,2.24.82,3.4-8.09,13.01-7.73,13.24-8.88,13.8-.34.16-3.69-.43-3.69-2.16Z" fill="#1876f2"/>
      <path d="M62.2,19.07c-.85-1.07-.66-2.63.41-3.48l15.76-12.43c1.08-.85,2.63-.66,3.47.41.85,1.07.66,2.63-.41,3.48l-15.76,12.43c-1.08.85-2.63.65-3.47-.41Z" fill="#1876f2"/>
      <path d="M49.95,64.23c-5.11-2.67-12.98-6.47-14.1-6.9-1.61-.61-2.12-2.64-1-3.94,2.1-2.42,43.35-50.08,45.25-52.28.65-.96,1.88-1.31,2.92-.93,1.37.51,2.01,2.09,1.36,3.4-1.2,5.07-1.98,10.66-6.25,38.01l-5.01,32.07c-.13.82-.67,1.53-1.43,1.87-2.38,1.06-1.76-.86-21.75-11.31ZM40.76,54.13c9.77,4.65,18.98,9.52,28.06,15.08l4.44-28.37c2.57-16.45,3.87-24.76,4.66-29.63-2.57,2.97,7.66-8.85-37.16,42.92Z" fill="#1876f2"/>
      <path d="M25.73,50.49c-7.07-4.7-15.08-10.02-23.56-11.06-2.5-.3-2.99-3.73-.68-4.72L81.18.22c2.61-1.13,4.75,2.35,2.57,4.17L28.69,50.33c-.84.7-2.05.76-2.95.16ZM10.22,36.32c6.04,2.13,11.6,5.65,16.71,9.03L67.43,11.56,10.22,36.32Z" fill="#1876f2"/>
      <path d="M38.75,72.91l-2.24-17.61,10.13,4.75-7.92,13c.06,0-.01-.11.04-.15Z" fill="#1876f2"/>
    </g>
  </g>
</svg>