<?xml version="1.0" encoding="UTF-8"?>
<svg id="Camada_2" data-name="Camada 2" xmlns="http://www.w3.org/2000/svg" viewBox="0 0 73.09 67.07">
  <g id="Camada_1-2" data-name="Camada 1">
    <path d="M71.36,10.35C68.21,3.54,60.42-.79,52.97.12c-4.44.54-7.92,2.84-11.05,5.87-4.51,4.37-2.69,5.63-8.47,2.36C26.67,4.51,22.17.33,13.78,3.66,4.72,7.27-.63,17.59.06,27.32c.69,9.73,6.63,18.57,14.43,24.42,3.95,2.96,8.35,5.24,12.72,7.51,3.6,1.86,11.12,7.81,15.07,7.82,3.97.01,7.94-5.35,10.62-8.23,10.84-11.67,25.19-33.94,18.45-48.49Z" fill="#047aff"/>
  </g>
</svg>