<?xml version="1.0" encoding="UTF-8"?>
<svg id="Camada_2" data-name="Camada 2" xmlns="http://www.w3.org/2000/svg" viewBox="0 0 91.2 116.86">
  <g id="Camada_1-2" data-name="Camada 1">
    <g>
      <path d="M12.5,115.83c-3.97-2.41-4.5-7.58-5.43-11.45-2.93-12.87-5.96-26.05-6.84-39.26C-3.14,15.18,32.02-9.23,64.09,3.2c31.35,12.13,41.33,56.94-1.83,90.92-14.34,11.26-28.82,17.09-30.66,18.04-5.31,2.46-14.13,6.66-19.1,3.66ZM5.25,64.78c1.05,15.85,5.63,33.17,7.09,40.17.52,2.5,1.17,5.61,2.75,6.57,2.9,1.76,13.42-3.48,16.14-4.73,18.4-8.3,37.64-21.21,47.94-38.78l2.17,1.28-2.17-1.28c13.61-23.18,6.7-50.95-16.91-60.1C34.17-3,2.08,18.01,5.25,64.78Z" fill="#fc4ade"/>
      <path d="M31.72,38.81c-1.98,7.23.59,15.53,6.38,20.28,5.79,4.75,14.51,5.64,21.08,2.04,8.2-4.49,12.97-15.56,6.52-26.63-9.88-16.97-29.98-10.3-33.99,4.31Z" fill="#f9e6f6"/>
    </g>
  </g>
</svg>