<?xml version="1.0" encoding="UTF-8"?>
<svg id="Camada_2" data-name="Camada 2" xmlns="http://www.w3.org/2000/svg" viewBox="0 0 82.6 56.94">
  <g id="Camada_1-2" data-name="Camada 1">
    <path d="M82.48,11.58c.96,7.23-3.96,15.92-7.1,22.59-1.57,3.34-10.12,20.71-11.76,22.11-2.14,1.83-3.06-.47-2.25-2.85,2.39-6.97,9.46-17.24,12.89-24.72,1.11-2.41,4.72-9.66,4.91-11.63.09-.93.28-1.26-.65-1.92-2.09,1.84-4.14,3.77-6.24,5.61-3.82,2.54-7.25,5.68-10.21,9.19-3.42,3-11.88,11.79-15.52,12.73-1,.26-1.33.43-2.19-.4-2.81-2.69-5.49-34.55-7.6-34.75-2.25,4.94-6.46,29.3-10.04,31.45-1.94,1.16-5.91-1.97-7.36-3.22-4.69-4.05-8.72-9.24-13.35-13.43s-1.52,5.58-.81,8.12c.82,2.91,6.9,18.03,6.64,19-.17.64-1.57,1.52-2.46,1.25-1.23-.34-2.8-5.78-3.35-7.23C4.31,39.04-1.04,22.69.18,18.84c1.19-3.76,4.23-1.77,6.54-.08,6.34,4.65,11.58,12.2,17.74,17.3.9.11,3.54-8.93,3.96-10.32,1.79-5.99,3.39-17.44,5.88-22.39.72-1.43,1.55-2.43,2.85-3.36,2.35,1.85,2.58,4.31,3.33,6.93,2.87,10.01,3.1,21.78,5.99,31.93l26.36-23.74c.49-.44,4.6-2.8,5.58-3.31,1.03-.54,2.41-.61,3.55-.8l.51.57Z" fill="#fc4ade"/>
  </g>
</svg>