<?xml version="1.0" encoding="UTF-8"?>
<svg id="Camada_2" data-name="Camada 2" xmlns="http://www.w3.org/2000/svg" viewBox="0 0 155.77 127.78">
  <g id="Camada_1-2" data-name="Camada 1">
    <g>
      <path d="M59.5,127.78c-9.69,0-18.58-.04-26.04-.07-7.57-.03-13.55-.06-17.69-.04h0c-7.43.04-11.69-.93-13.9-3.16C-.07,122.54-.03,119.99.01,117.75v-.66c.06-5.28,5.04-92.89,5.74-100.8.91-10.32,4.11-11.58,11.28-13.43.73-.19,1.51-.39,2.33-.62C23.87,1,54.59.17,81.21.03c49.75-.27,57.07,1.45,58.57,2.36.15.04.35.08.59.13,9.51,2.03,14.35,6.69,14.39,13.86,1.76,16.73.79,59.38.27,82.32-.13,5.72-.23,10.24-.26,12.82-.06,5.72-2.43,10.02-6.86,12.46-3.64,2-8.04,2.38-11.08,2.35-24.19,1.22-53.24,1.47-77.34,1.47ZM19.39,124.6c3.77,0,8.49.02,14.08.05,25.96.12,69.38.32,103.31-1.4,2.73.04,6.61-.3,9.67-1.98,3.5-1.92,5.22-5.13,5.27-9.8.03-2.6.13-7.12.26-12.86.52-22.9,1.48-65.52-.27-82,0-.05,0-.11,0-.16,0-7.52-6.83-9.85-11.97-10.94-.9-.19-1.32-.28-1.68-.6-5.53-2.55-108.45-2.31-117.88.28-.84.23-1.63.44-2.38.63-6.33,1.64-8.24,2.13-8.99,10.74-.69,7.89-5.66,95.3-5.72,100.56v.68c-.05,2.17-.02,3.56.97,4.56,1.51,1.53,5.51,2.28,11.7,2.25h0c1.09,0,2.3,0,3.64,0Z" fill="#003375"/>
      <circle cx="24.02" cy="15.17" r="3.57" fill="#003477"/>
      <circle cx="34.83" cy="15.17" r="3.57" fill="#38befa"/>
      <circle cx="45.64" cy="15.17" r="3.57" fill="#c68eff"/>
    </g>
  </g>
</svg>