<?xml version="1.0" encoding="UTF-8"?>
<svg id="Camada_2" data-name="Camada 2" xmlns="http://www.w3.org/2000/svg" viewBox="0 0 151.87 122.92">
  <g id="Camada_1-2" data-name="Camada 1">
    <g>
      <path d="M141.25,44.23L50.3,11.13c-5.42-1.97-11.47.2-14.4,5.17L4.78,69.02c-3.36,5.69-1.47,13.03,4.23,16.39.63.37,1.3.69,1.99.94l90.96,33.11c5.42,1.97,11.47-.2,14.4-5.17l31.11-52.73c3.36-5.69,1.47-13.03-4.23-16.39-.63-.37-1.3-.69-1.99-.94Z" fill="#047aff" fill-rule="evenodd"/>
      <path d="M106.05,122.92c-1.68,0-3.37-.29-5.02-.89L10.06,88.92c-.84-.31-1.67-.7-2.44-1.15-6.98-4.12-9.31-13.15-5.19-20.14L33.54,14.9c3.6-6.1,11.04-8.77,17.7-6.35l90.96,33.11h0c.85.31,1.67.7,2.44,1.15,3.38,2,5.79,5.19,6.77,8.99.98,3.8.42,7.76-1.57,11.14l-31.11,52.73c-2.71,4.59-7.59,7.23-12.67,7.23ZM46.21,13.14c-3.19,0-6.26,1.66-7.96,4.54L7.14,70.41c-2.59,4.39-1.12,10.06,3.26,12.64.49.29,1,.53,1.53.72l90.96,33.11c4.18,1.52,8.85-.15,11.11-3.99l31.11-52.73c1.25-2.12,1.6-4.61.99-7-.62-2.39-2.13-4.39-4.25-5.65-.49-.29-1-.53-1.53-.72h0L49.36,13.7c-1.04-.38-2.1-.56-3.15-.56Z" fill="#047aff"/>
      <path d="M96.7,119.64c-.8,0-1.61-.07-2.43-.2-.89-.15-1.76-.38-2.61-.69L9.68,88.91C3.02,86.49-.96,79.66.2,72.67L10.28,12.29C11.62,4.29,19.21-1.13,27.21.2c.89.15,1.76.38,2.61.69h0l81.98,29.84c6.66,2.42,10.64,9.25,9.48,16.24l-10.08,60.39c-1.2,7.18-7.44,12.29-14.5,12.29ZM24.78,5.47c-4.43,0-8.35,3.2-9.1,7.71l-10.08,60.39c-.73,4.39,1.77,8.68,5.95,10.2l81.98,29.84c.53.19,1.08.34,1.64.43,5.02.84,9.79-2.57,10.63-7.59l10.08-60.39c.73-4.39-1.77-8.68-5.95-10.2L27.94,6.03c-.53-.19-1.08-.34-1.64-.43-.51-.09-1.02-.13-1.52-.13Z" fill="#013374"/>
      <path d="M57.2,67.9c-.32,0-.63-.05-.94-.16-.68-.25-1.24-.76-1.55-1.42l-4.32-9.35c-.63-1.37-.04-3,1.34-3.63,1.37-.63,3-.04,3.63,1.34l3.17,6.85,12.78-6.01c1.37-.64,3-.06,3.64,1.31.64,1.37.06,3-1.31,3.64l-15.27,7.18c-.37.17-.77.26-1.16.26Z" fill="#013374"/>
    </g>
  </g>
</svg>