<?xml version="1.0" encoding="UTF-8"?>
<svg id="Camada_2" data-name="Camada 2" xmlns="http://www.w3.org/2000/svg" viewBox="0 0 137.44 121.33">
  <g id="Camada_1-2" data-name="Camada 1">
    <g>
      <path d="M2.65,64.99h56.76c3.99.27,4.69,1.2,5.08,4.07v42.83c0,.83,0,3.13,0,5.72s-2.43,2.78-8.37,2.7c-15.84-.22-48-.63-49.9-.54-1.9.09-2.56-.9-2.65-1.4-2.39-4.35-.9-25.22-1.2-49.31" fill="none" stroke="#fc4ade" stroke-linecap="round" stroke-linejoin="round" stroke-width="2"/>
      <path d="M57.03,74.27c4.71,4.78,5.71,35.43.16,38.38-5.56,2.95-49.74,1.41-48.69-.96,1.05-2.37-4-33.13-.15-37.22,3.85-4.09,43.98-4.98,48.68-.2Z" fill="#edf8fd"/>
      <path d="M40.84,78.64c1.76,0,3.18,1.41,3.18,3.14,0,1.72-1.41,3.14-3.18,3.14-1.76,0-3.18-1.41-3.18-3.14,0-1.72,1.41-3.14,3.18-3.14Z" fill="#0054c2" stroke="#0054c2" stroke-width="2"/>
      <path d="M7.45,105.36c.35-.43,10.52-20.51,14.13-19.32,3.61,1.2,10.06,18.52,10.06,18.52M35.11,113.12l-3.47-8.56M31.64,104.56s8.15-8.26,13.45-12.01c5.3-3.75,11.78,10.27,11.78,10.27" fill="none" stroke="#0054c2" stroke-linecap="round" stroke-linejoin="round" stroke-width="2"/>
      <path d="M74.6,64.99h56.76c3.99.27,4.69,1.2,5.08,4.07v48.55c0,2.59-2.43,2.78-8.37,2.7-15.84-.22-48-.63-49.9-.54-1.9.09-2.56-.9-2.65-1.4-2.39-4.35-.9-25.22-1.2-49.31" fill="none" stroke="#fc4ade" stroke-linecap="round" stroke-linejoin="round" stroke-width="2"/>
      <path d="M128.98,74.27c4.71,4.78,5.71,35.43.16,38.38-5.55,2.95-49.74,1.41-48.69-.96,1.05-2.37-4-33.13-.15-37.22,3.85-4.09,43.98-4.98,48.68-.2Z" fill="#edf8fd"/>
      <path d="M112.79,78.64c1.76,0,3.18,1.41,3.18,3.14s-1.41,3.14-3.18,3.14c-1.76,0-3.18-1.41-3.18-3.14s1.41-3.14,3.18-3.14Z" fill="#0054c2" stroke="#0054c2" stroke-width="2"/>
      <path d="M79.4,105.36c.35-.43,10.52-20.51,14.13-19.32,3.61,1.2,10.06,18.52,10.06,18.52M107.06,113.12l-3.47-8.56M103.59,104.56s8.14-8.26,13.45-12.01c5.3-3.75,11.78,10.27,11.78,10.27" fill="none" stroke="#0054c2" stroke-linecap="round" stroke-linejoin="round" stroke-width="2"/>
      <path d="M74.6,1h56.76c3.99.27,4.69,1.2,5.08,4.07v48.55c0,2.59-2.43,2.78-8.37,2.7-15.84-.22-48-.63-49.9-.54-1.9.09-2.56-.9-2.65-1.4-2.39-4.35-.9-25.22-1.2-49.31" fill="none" stroke="#fc4ade" stroke-linecap="round" stroke-linejoin="round" stroke-width="2"/>
      <path d="M128.98,10.28c4.71,4.78,5.71,35.43.16,38.38-5.56,2.95-49.74,1.41-48.69-.96,1.05-2.37-4-33.13-.15-37.22,3.85-4.09,43.98-4.98,48.68-.2Z" fill="#edf8fd"/>
      <path d="M112.79,14.65c1.76,0,3.18,1.41,3.18,3.14s-1.41,3.14-3.18,3.14c-1.76,0-3.18-1.41-3.18-3.14s1.41-3.14,3.18-3.14Z" fill="#0054c2" stroke="#0054c2" stroke-width="2"/>
      <path d="M79.4,41.37c.35-.43,10.52-20.51,14.13-19.32,3.61,1.2,10.06,18.52,10.06,18.52M107.06,49.13l-3.47-8.56M103.59,40.58s8.14-8.26,13.45-12.01c5.3-3.75,11.78,10.27,11.78,10.27" fill="none" stroke="#0054c2" stroke-linecap="round" stroke-linejoin="round" stroke-width="2"/>
      <path d="M1.46,1h56.76c3.99.27,4.69,1.2,5.08,4.07v48.55c0,2.59-2.43,2.78-8.37,2.7-15.84-.22-48-.63-49.9-.54-1.9.09-2.56-.9-2.65-1.4C0,50.03,1.49,29.16,1.19,5.07" fill="none" stroke="#fc4ade" stroke-linecap="round" stroke-linejoin="round" stroke-width="2"/>
      <path d="M55.84,10.28c4.71,4.78,5.71,35.43.16,38.38-5.56,2.95-49.74,1.41-48.69-.96,1.05-2.37-4-33.13-.15-37.22,3.85-4.09,43.98-4.98,48.68-.2Z" fill="#edf8fd"/>
      <path d="M39.66,14.65c1.76,0,3.18,1.41,3.18,3.14,0,1.72-1.41,3.14-3.18,3.14-1.76,0-3.18-1.41-3.18-3.14,0-1.72,1.41-3.14,3.18-3.14Z" fill="#0054c2" stroke="#0054c2" stroke-width="2"/>
      <path d="M6.26,41.37c.35-.43,10.52-20.51,14.13-19.32,3.61,1.2,10.06,18.52,10.06,18.52M33.93,49.13l-3.47-8.56M30.45,40.58s8.15-8.26,13.45-12.01c5.3-3.75,11.78,10.27,11.78,10.27" fill="none" stroke="#0054c2" stroke-linecap="round" stroke-linejoin="round" stroke-width="2"/>
      <path d="M39.82,47.01c3.57,10.2,10.01,14.33,18.77,12.7,7.66-1.43,13.62-8.88,12.94-18.6-1.61-8.64-8.82-14.04-18.77-12.7-8.76,1.63-15.89,6.83-12.94,18.6Z" fill="#e3eefc"/>
      <path d="M53,51.8l-2.45.46c-.43.08-.88-.01-1.24-.26-.36-.25-.61-.63-.69-1.07l-1.07-5.72c-.08-.43.01-.88.26-1.24.25-.36.63-.61,1.07-.69l2.45-.46M56.74,40.11l-.61-3.27c-.12-.65-.5-1.23-1.04-1.6-.55-.37-1.22-.52-1.87-.4l-1.9,7.96,1.67,8.99,9.22-1.72c.39-.07.75-.28,1-.59.25-.31.38-.7.37-1.1l-.24-7.56c0-.24-.07-.48-.18-.69-.11-.22-.26-.4-.45-.55-.19-.15-.41-.26-.64-.31-.23-.06-.48-.06-.71-.02l-4.62.86Z" fill="none" stroke="#1876f2" stroke-linecap="round" stroke-linejoin="round" stroke-width="2"/>
      <path d="M64.96,66.02c-1.41,10.72,2.49,17.3,11.04,19.79,7.48,2.17,16.16-1.8,19.93-10.79,2.46-8.44-1.55-16.51-11.04-19.79-8.55-2.49-17.26-1.06-19.93,10.79Z" fill="#f9e6f6"/>
      <path d="M88.7,67.7c-.28-.51-.66-.97-1.12-1.33-.46-.37-.98-.64-1.54-.8s-1.15-.21-1.73-.15-1.15.24-1.66.52l-1.07.59-.59-1.07c-.57-1.04-1.53-1.8-2.66-2.13-1.14-.33-2.36-.2-3.39.37-1.04.57-1.8,1.53-2.13,2.66s-.2,2.36.37,3.39l.59,1.07,4.3,7.82,7.82-4.3,1.07-.59c.51-.28.97-.66,1.33-1.12.37-.46.64-.98.8-1.54.16-.56.21-1.15.15-1.73-.06-.58-.24-1.15-.52-1.66h0Z" fill="none" stroke="#fc4ade" stroke-linecap="round" stroke-linejoin="round" stroke-width="2"/>
    </g>
  </g>
</svg>