<?xml version="1.0" encoding="UTF-8"?>
<svg id="Camada_2" data-name="Camada 2" xmlns="http://www.w3.org/2000/svg" viewBox="0 0 204.92 201.06">
  <g id="Camada_1-2" data-name="Camada 1">
    <g>
      <path d="M21.49,201.05c-1.78,1.96-1.78-202.98,0-201.03,0,0,0,201.03,0,201.03Z" fill="#dae2f8"/>
      <path d="M41.85,201.05c-1.78,1.96-1.78-202.98,0-201.03,0,0,0,201.03,0,201.03Z" fill="#dae2f8"/>
      <path d="M62.21,201.05c-1.78,1.96-1.78-202.98,0-201.03,0,0,0,201.03,0,201.03Z" fill="#dae2f8"/>
      <path d="M82.57,201.05c-1.78,1.96-1.78-202.98,0-201.03,0,0,0,201.03,0,201.03Z" fill="#dae2f8"/>
      <path d="M102.93,201.05c-1.78,1.96-1.78-202.98,0-201.03,0,0,0,201.03,0,201.03Z" fill="#dae2f8"/>
      <path d="M123.3,201.05c-1.78,1.96-1.78-202.98,0-201.03,0,0,0,201.03,0,201.03Z" fill="#dae2f8"/>
      <path d="M143.66,201.05c-1.78,1.96-1.78-202.98,0-201.03,0,0,0,201.03,0,201.03Z" fill="#dae2f8"/>
      <path d="M164.02,201.05c-1.78,1.96-1.78-202.98,0-201.03,0,0,0,201.03,0,201.03Z" fill="#dae2f8"/>
      <path d="M184.38,201.05c-1.78,1.96-1.78-202.98,0-201.03,0,0,0,201.03,0,201.03Z" fill="#dae2f8"/>
      <path d="M204.91,182.45H.01c-1.96-1.78,206.84-1.78,204.89,0Z" fill="#dae2f8"/>
      <path d="M204.91,162.09H.01c-1.96-1.78,206.84-1.78,204.89,0Z" fill="#dae2f8"/>
      <path d="M204.91,141.73H.01c-1.96-1.78,206.84-1.78,204.89,0Z" fill="#dae2f8"/>
      <path d="M204.91,121.37H.01c-1.96-1.78,206.84-1.78,204.89,0Z" fill="#dae2f8"/>
      <path d="M204.91,101.01H.01c-1.96-1.78,206.84-1.78,204.89,0Z" fill="#dae2f8"/>
      <path d="M204.91,80.64H.01c-1.96-1.78,206.84-1.78,204.89,0Z" fill="#dae2f8"/>
      <path d="M204.91,60.28H.01c-1.96-1.78,206.84-1.78,204.89,0Z" fill="#dae2f8"/>
      <path d="M204.91,39.92H.01c-1.96-1.78,206.84-1.78,204.89,0Z" fill="#dae2f8"/>
      <path d="M204.91,19.56H.01c-1.96-1.78,206.84-1.78,204.89,0Z" fill="#dae2f8"/>
    </g>
  </g>
</svg>