<?xml version="1.0" encoding="UTF-8"?>
<svg id="Camada_2" data-name="Camada 2" xmlns="http://www.w3.org/2000/svg" viewBox="0 0 159.71 143.14">
  <g id="Camada_1-2" data-name="Camada 1">
    <g>
      <rect x="9.37" y="15.41" width="103.07" height="116.31" rx="5.17" ry="5.17" transform="translate(-2.02 1.72) rotate(-1.59)" fill="#f9fafb"/>
      <path d="M98.35,29.59c6.95,7.06,8.43,52.31.23,56.66-8.2,4.36-73.43,2.08-71.88-1.42,1.55-3.5-5.91-48.9-.22-54.95,5.69-6.04,64.92-7.35,71.87-.29Z" fill="#e3eefc" isolation="isolate" opacity=".5"/>
      <path d="M74.45,35.48c2.92,0,5.26,2.34,5.26,5.21s-2.35,5.21-5.26,5.21c-2.92,0-5.27-2.34-5.27-5.21s2.35-5.21,5.27-5.21Z" fill="#0054c2" stroke="#0054c2" stroke-width="2"/>
      <path d="M26.94,107.73c38.78,0,29.36-1.39,53.82.93" fill="none" stroke="#0054c2" stroke-linecap="round" stroke-linejoin="round" stroke-width="2"/>
      <path d="M19.95,14h83.8c5.89.4,6.92,1.77,7.5,6.02.6,4.41.88,71.78,0,77-.88,5.21-5.74,7.22-12.79,5.61-7.06-1.6-2.47-9.46,5.29-4.01,7.76,5.45,6.77,6.82,7.5,11.63.73,4.81,0,16.44,0,16.44-.88,3.61-2.65,4.81-7.5,4.41-5.62-.47-55.87,0-80.27,0-2.65-.4-4.15-.74-5.73-3.61-3.53-6.42-1.32-71.92-1.76-107.48" fill="none" stroke="#0054c2" stroke-linecap="round" stroke-linejoin="round" stroke-width="2"/>
      <path d="M26.94,116.19c13.78,1.02,16.45-.91,33.34,0" fill="none" stroke="#0054c2" stroke-linecap="round" stroke-linejoin="round" stroke-width="2"/>
      <path d="M25.15,75.49c.52-.64,15.53-30.28,20.86-28.52,5.33,1.76,14.85,27.35,14.85,27.35M65.99,86.95l-5.13-12.63M60.86,74.32s12.03-12.19,19.85-17.72c7.83-5.53,17.39,15.15,17.39,15.15" fill="none" stroke="#0054c2" stroke-linecap="round" stroke-linejoin="round" stroke-width="2"/>
      <path d="M129.21,37.81c-1.6,10.53-7.06,15.69-15.76,15.69-7.61,0-14.68-6.15-15.76-15.69,0-8.66,5.96-15.19,15.76-15.69,8.7,0,16.49,3.75,15.76,15.69Z" fill="#13bd49"/>
      <path d="M107.62,36.5s-.56,9.73,2.49,7.31c3.06-2.42,11.14-11.4,11.14-11.4" fill="none" stroke="#fff" stroke-linecap="round" stroke-linejoin="round" stroke-width="2"/>
      <path d="M99.14,134.32c-.75,3.62-5.94,5.43-10.84,5.22-5.68-.24-52.83,1.65-77.42,2.6-2.68-.3-4.21-.57-5.92-3.36-3.8-6.24-2.15-72.13-3.97-107.46" fill="none" stroke="#0054c2" stroke-linecap="round" stroke-linejoin="round" stroke-width="2"/>
      <path d="M159.71,24.45c-3.15-.9-4.46-1.9-4.84-5.73-.87,4.17-2.11,5.32-5.41,5.73,3.29.61,4.5,1.7,5.41,5.09.49-3.48,1.57-4.6,4.84-5.09Z" fill="#fc4ade"/>
      <path d="M146.83,9.93c-4.25-1.17-7.26-1.59-8.15-9.93-1.59,8.47-5.79,8.28-9.55,10.12,5.01,1.41,8.09,3.82,9.17,8.53.38-4.71,5.41-8.02,8.53-8.72Z" fill="#fc4ade"/>
    </g>
  </g>
</svg>