<?xml version="1.0" encoding="UTF-8"?>
<svg id="Camada_2" data-name="Camada 2" xmlns="http://www.w3.org/2000/svg" viewBox="0 0 128.6 128.85">
  <g id="Camada_1-2" data-name="Camada 1">
    <g>
      <path d="M128.6,12.85v76.72c0,7.81-6.91,13.84-14.63,12.74-3.92-.55-7.77-1.33-11.54-2.32v-60.72c0-7.09-5.76-12.85-12.85-12.85H28.68c-1.03-3.84-1.82-7.77-2.39-11.79-1.1-7.73,4.93-14.63,12.73-14.63h76.72c7.1,0,12.85,5.75,12.85,12.85h0Z" fill="#c6308d"/>
      <path d="M102.44,39.27v60.72C66.48,90.6,38.15,62.34,28.69,26.41h60.9c7.09,0,12.85,5.76,12.85,12.85Z" fill="#492775"/>
      <path d="M102.44,99.98v16.01c0,7.8-6.91,13.83-14.64,12.73C42.44,122.29,6.56,86.41.13,41.05c-1.1-7.73,4.93-14.64,12.73-14.64h15.82c9.46,35.92,37.79,64.19,73.75,73.57h0Z" fill="#2f64e0"/>
    </g>
  </g>
</svg>