<?xml version="1.0" encoding="UTF-8"?>
<svg id="Camada_2" data-name="Camada 2" xmlns="http://www.w3.org/2000/svg" viewBox="0 0 139.94 122.12">
  <g id="Camada_1-2" data-name="Camada 1">
    <g>
      <path d="M17.84,118.52c4.45-8.13,8.21-16.67,11.18-25.46-6.81,0-13-4.41-17.14-9.65-4.69-5.94-5.67-14.38-2.64-21.27C2.72,57.25-.66,48.04.11,36.97,1.74,13.49,19.38,8.01,42.69,10.72,52.7.98,68.58-2.61,81.77,1.98c6.55,2.29,14.34,7.78,16.11,16.05,2.18.27,13.72,3.36,18.25,6.07,8.05,4.82,13,14.37,12.9,24.63,6.11,3.64,10.11,10.65,10.81,19.09,1.56,18.73-16.28,39.97-35.02,37.2-2.74-.43-2.71-.56-4.23,1.1-13.04,14.05-34.64,13.5-46.95-.3-11.03,6.65-22.23,11.66-32.73,16.1-2.11.9-4.17-1.39-3.07-3.4ZM34.85,90.8c-2.56,8.22-5.77,16.25-9.59,23.97,9.03-3.96,18.43-8.47,27.62-14.17,1.06-.66,2.44-.4,3.2.58,10.13,13.14,29.63,13.84,40.74,1.87,2.98-3.23,4.42-3.5,8.71-2.82,15.47,2.34,30.78-16.3,29.47-32-.6-7.24-4.25-13.33-9.51-15.89-.88-.43-1.42-1.35-1.36-2.33.53-8.92-3.69-17.66-10.5-21.74-4.39-2.63-16.13-5.59-17.62-5.45-1.33.15-2.55-.86-2.66-2.22-.56-7.15-7.46-12.03-13.19-14.03-11.84-4.13-26.17-.68-34.83,8.39-.53.55-1.3.83-2.05.73-12.08-1.5-27.17-1.63-34.27,8.3-6.26,8.75-6.07,29.16,4.57,35.23,1.18.67,1.57,2.18.89,3.34-3.19,5.42-2.68,12.93,1.21,17.86,3.62,4.58,10.01,9.25,16.14,7.35,1.86-.58,3.61,1.18,3.03,3.04Z" fill="#e52c91"/>
      <path d="M97.57,73.67c3.98-3.73,6.59-9.19,5.98-14.61-.61-5.42-4.94-10.48-10.36-11.05-5.66-.59-10.67,3.36-14.98,7.08,2.08-6.34-.22-15.38-4.83-20.2-4.61-4.82-12.85-6.08-18.18-2.06-4.43,3.34-6.09,9.4-5.54,14.92.79,8.05,5.41,15.32,11.05,27.97.92,2.06,1.44,6.51,4.07,7.1.5.11,1.02.06,1.53.01,7.07-.7,21.8-.29,31.26-9.17Z" fill="#dae2f8"/>
    </g>
  </g>
</svg>