<?xml version="1.0" encoding="UTF-8"?>
<svg id="Camada_2" data-name="Camada 2" xmlns="http://www.w3.org/2000/svg" viewBox="0 0 228.59 146.52">
  <g id="Camada_1-2" data-name="Camada 1">
    <g>
      <path d="M126.58,7.47c2.45-15.05,19.48-4.03,25.98,4.17-50.6-2.01-56.12,5.76-50.91-4.97,4.21-8.68,16.71-5.21,24.93.8Z" fill="#21b1f4"/>
      <path d="M61.29,115.79c-12.68.07-12-3.55-11.96-7.6.04-4.05,4.18-77.49,4.82-84.75.8-9.07,3.64-8.8,10.52-10.7,6.88-1.9,97.59-2.95,100.4.02.36.38,11.95,1.15,11.95,10.7,1.85,17.43.12,69.08.01,80-.1,10.01-8.91,11.24-13.8,11.19-36.69,1.85-86.08,1.05-101.94,1.14Z" fill="none" stroke="#003375" stroke-linecap="round" stroke-linejoin="round" stroke-width="2.58"/>
      <path d="M148.27,43.7v38.16c0,3.89-3.44,6.88-7.28,6.34-1.95-.27-3.86-.66-5.74-1.15v-30.2c0-3.53-2.86-6.39-6.39-6.39h-30.29c-.51-1.91-.91-3.87-1.19-5.86-.54-3.84,2.45-7.28,6.33-7.28h38.16c3.53,0,6.39,2.86,6.39,6.39h0Z" fill="#c6308d"/>
      <path d="M135.26,56.84v30.2c-17.89-4.67-31.98-18.73-36.69-36.6h30.29c3.53,0,6.39,2.86,6.39,6.39Z" fill="#492775"/>
      <path d="M135.26,87.05v7.96c0,3.88-3.44,6.88-7.28,6.33-22.56-3.2-40.41-21.05-43.61-43.61-.54-3.84,2.45-7.28,6.33-7.28h7.87c4.71,17.87,18.8,31.93,36.69,36.6h0Z" fill="#2f64e0"/>
      <circle cx="68.25" cy="22.38" r="3.01" fill="#003477"/>
      <circle cx="77.34" cy="22.38" r="3.01" fill="#38befa"/>
      <circle cx="86.44" cy="22.38" r="3.01" fill="#c68eff"/>
      <path d="M199.71,138.15l-41.26-22.09c23.42.41,19.44-11.62,19.94-21.4-.47-2.64-2.23-7.71-2.92-17.74-.7-10.11,3.5-18.6,6.93-21.69l-5.16-13.37c-.32-10.78,2.85-31.68,9.91-26.78,3.58,2.48,7.52-4.61,12.56,24.65,4.03,23.4,20.66,42.81,28.48,49.59-4.49,21.85-20.86,41.65-28.48,48.82Z" fill="#0facf3"/>
      <path d="M185.89,105.82c-5.81-6.64-15.65-24.82-8.56-44.41,4.94-10.06,13.96-6.32,13.12-2.49-.85,3.83-11.01-2.45-12.69-15.29-1.55-8.54-2.03-25.6,7.34-28.9,6.46-2.28,11.37,7.68,12.77,17.29,2.32,21.39,8.15,34.51,29.76,57.37" fill="none" stroke="#003375" stroke-linecap="round" stroke-width="1.93"/>
      <path d="M48.12,144.1c-13.91,7.63-35.33-4.62-44.31-11.69,4.55-16.24,14.83-51.22,19.59-61.2,4.75-9.98,12.99-9.62,16.52-8.2,8.08-5.32,13.74-2.22,15.57,0,3.9-3.71,8.99.2,11.05,2.61,5.45-11.53,18.82-33.48,28.64-29.11,12.28,5.47-32.12,71.73-27,66.59,4.1-4.11,10.1-8.7,12.6-10.48,3.73-2.52,12.01-6.33,15.32-1.41,4.13,6.15-7.8,16.43-13.18,20.74-5.38,4.31-12.46,13.38-19.85,20.46-5.91,5.66-12.41,10.16-14.92,11.69Z" fill="#21b1f4"/>
      <path d="M.97,129.74c4.96-27.07,19.49-78.4,37.94-67.15l1.11.89M27.64,86.54c3.89-12.74,14.89-35.35,27.72-23.95M40.79,85.78c4.62-12.43,16.26-33.6,25.48-19.96M53.61,88.17c11.84-22.71,37.04-64.37,43.12-49.32.6,1.77.64,7.32-2.8,15.81-3.44,8.48-18.88,36.52-26.31,49.42" fill="none" stroke="#003375" stroke-linecap="round" stroke-width="1.93"/>
    </g>
  </g>
</svg>