<?xml version="1.0" encoding="UTF-8"?>
<svg id="Camada_2" data-name="Camada 2" xmlns="http://www.w3.org/2000/svg" viewBox="0 0 191.06 134.42">
  <g id="Camada_1-2" data-name="Camada 1">
    <g>
      <path d="M159.1,16.13l18.71-14.87c.9-.71,2.17.18,1.8,1.27l-4.98,14.79c-.24.7.24,1.42.98,1.44,1.4.04,3.67.05,6.86-.08,4.72-.18,6.99,5.15,7.57,7.94.02.07.02.14.02.21v26.8c0,5.52-6.13,7.2-9.2,7.36H49.11c-4.78,0-6.13-6.29-6.21-9.43v-28.05c0-6.74,5.87-7.57,8.88-7.14.06,0,.11.01.17.01h106.43c.26,0,.51-.09.72-.25Z" fill="none" stroke="#003375" stroke-width="2"/>
      <path d="M60.09,30.84c2.74,9.69,23.8,23.84,37.19,14.84,2.6-1.68,7.85-7.66.31-13.26-9.42-7-11.36,2.97-8.36,7,3.48,4.68,21.26,17.18,35.89,3.19,1.75-1.91,3.07-4.95-.27-9.14-4.18-5.24-8.66-1.26-6.09,3.02,2.57,4.28,14.76,15.92,37.12,7.96" fill="none" stroke="#003375" stroke-linecap="round" stroke-width="2"/>
      <path d="M31.96,119.26l-18.71,14.87c-.9.71-2.17-.18-1.81-1.27l4.98-14.79c.24-.7-.24-1.42-.98-1.44-1.4-.04-3.67-.05-6.85.08-4.72.18-6.99-5.15-7.57-7.94-.01-.07-.02-.14-.02-.21v-26.8c0-5.52,6.13-7.2,9.2-7.36h131.75c4.78,0,6.13,6.29,6.21,9.43v28.05c0,6.74-5.87,7.57-8.88,7.14-.06,0-.11-.01-.17-.01H32.67c-.26,0-.51.09-.72.25Z" fill="#fee6f0"/>
      <path d="M148.16,111.89v-28.05c-.08-3.14,1.01-9.43-6.21-9.43l-114.5-1.12" fill="none" stroke="#003375" stroke-linecap="round" stroke-width="2"/>
      <path d="M12.24,133.42l4.28-15.39c.19-.69-.28-1.37-1-1.39-1.39-.04-3.69-.05-6.93.07-4.78.18-7.05-5.29-7.59-8.05" fill="none" stroke="#003375" stroke-linecap="round" stroke-width="2"/>
      <path d="M133.06,88.93c-2.01,9.69-17.47,23.84-27.31,14.84-1.91-1.68-5.76-7.66-.23-13.26,6.92-7,8.34,2.97,6.14,7-2.55,4.68-15.61,17.18-26.35,3.19-1.28-1.91-2.26-4.95.2-9.14,3.07-5.24,6.36-1.26,4.48,3.02-1.89,4.28-10.84,15.92-27.26,7.96M62.63,102.12c-1.91-1.68-5.76-7.66-.23-13.26,6.92-7,8.34,2.97,6.14,7-.89,1.62-3.03,4.19-5.91,6.26ZM62.63,102.12c-5.42,3.9-13.42,6.06-20.44-3.07M42.19,99.05c-1.28-1.91-2.26-4.95.2-9.14,3.07-5.24,6.36-1.26,4.48,3.02-.67,1.52-2.22,3.95-4.68,6.12ZM42.19,99.05c-4.48,3.95-11.97,6.99-22.59,1.84" fill="none" stroke="#003375" stroke-linecap="round" stroke-width="2"/>
    </g>
  </g>
</svg>