<?xml version="1.0" encoding="UTF-8"?>
<svg id="Camada_2" data-name="Camada 2" xmlns="http://www.w3.org/2000/svg" viewBox="0 0 153.48 179.38">
  <g id="Camada_1-2" data-name="Camada 1">
    <g>
      <path d="M1.75,51.7h91.75c6.45.44,7.58,1.94,8.21,6.59v69.23c0,1.34,0,5.06,0,9.25s-3.92,4.5-13.53,4.36c-25.6-.35-77.58-1.01-80.66-.87-3.07.14-4.13-1.45-4.28-2.27-3.86-7.03-1.45-40.77-1.93-79.7" fill="none" stroke="#0054c2" stroke-linecap="round" stroke-linejoin="round" stroke-width="2"/>
      <path d="M89.65,66.7c7.61,7.73,9.23,57.27.25,62.04-8.98,4.77-80.39,2.28-78.7-1.56,1.7-3.83-6.47-53.54-.25-60.16,6.23-6.62,71.08-8.05,78.69-.32Z" fill="#edf8fd"/>
      <path d="M63.48,73.54c2.98,0,5.37,2.39,5.37,5.31s-2.39,5.31-5.37,5.31c-2.98,0-5.37-2.39-5.37-5.31,0-2.92,2.39-5.31,5.37-5.31Z" fill="#0054c2" stroke="#0054c2" stroke-width="2"/>
      <path d="M74,26.31c4.99,14.28,14.01,20.05,26.26,17.77,10.71-1.99,19.06-12.43,18.1-26.03C116.1,5.96,106.02-1.59,92.1.29c-12.25,2.28-22.23,9.55-18.1,26.03Z" fill="#e3eefc"/>
      <path d="M92.43,33.01l-3.43.64c-.61.11-1.23-.02-1.74-.37-.51-.35-.86-.89-.97-1.49l-1.49-8c-.11-.61.02-1.23.37-1.74.35-.51.89-.86,1.49-.97l3.43-.64M97.67,16.66l-.85-4.57c-.17-.91-.69-1.71-1.46-2.24-.76-.52-1.7-.72-2.61-.55l-2.66,11.14,2.34,12.57,12.89-2.4c.55-.1,1.05-.39,1.41-.82.35-.44.54-.98.52-1.54l-.34-10.58c-.01-.34-.1-.67-.25-.97-.15-.3-.37-.57-.63-.78-.26-.21-.57-.36-.9-.44-.33-.08-.67-.09-1-.02l-6.47,1.21Z" fill="none" stroke="#1876f2" stroke-linecap="round" stroke-linejoin="round" stroke-width="2"/>
      <path d="M34.73,90.39c0-1.65,1.34-2.98,2.98-2.98h73.81c1.65,0,2.98,1.34,2.98,2.98v85.01c0,1.65-1.34,2.98-2.98,2.98H45.18c-5.77,0-10.45-4.68-10.45-10.45v-77.55Z" fill="#fff"/>
      <path d="M36.73,88.93h91.75c6.45.44,7.58,1.94,8.21,6.59v78.48c0,4.19-3.92,4.5-13.53,4.36-25.6-.35-77.58-1.01-80.66-.87-3.07.14-4.13-1.45-4.28-2.27-3.86-7.03-1.45-40.77-1.93-79.7" fill="none" stroke="#0054c2" stroke-linecap="round" stroke-linejoin="round" stroke-width="2"/>
      <path d="M124.64,103.93c7.61,7.73,9.23,57.27.25,62.04-8.98,4.77-80.39,2.28-78.7-1.56,1.7-3.83-6.47-53.55-.25-60.16,6.23-6.62,71.08-8.05,78.69-.32Z" fill="#edf8fd"/>
      <path d="M98.46,110.77c2.98,0,5.37,2.39,5.37,5.31,0,2.92-2.39,5.31-5.37,5.31s-5.37-2.39-5.37-5.31,2.39-5.31,5.37-5.31Z" fill="#0054c2" stroke="#0054c2" stroke-width="2"/>
      <path d="M44.49,154.18c.57-.7,17.01-33.16,22.84-31.22,5.83,1.93,16.26,29.94,16.26,29.94M89.2,166.73l-5.61-13.83M83.59,152.9s13.17-13.35,21.74-19.41c8.57-6.06,19.04,16.59,19.04,16.59" fill="none" stroke="#0054c2" stroke-linecap="round" stroke-linejoin="round" stroke-width="2"/>
      <path d="M109.17,52.91c-1.97,15,3.48,24.21,15.44,27.69,10.46,3.04,22.61-2.52,27.88-15.09,3.43-11.81-2.17-23.09-15.44-27.69-11.96-3.48-24.15-1.48-27.88,15.09Z" fill="#f9e6f6"/>
      <path d="M142.39,55.26c-.39-.72-.93-1.35-1.57-1.86-.64-.51-1.37-.89-2.16-1.12-.79-.23-1.61-.3-2.43-.21s-1.6.34-2.32.73l-1.49.82-.82-1.49c-.8-1.45-2.14-2.52-3.73-2.99-1.59-.46-3.3-.27-4.75.52-1.45.8-2.52,2.14-2.99,3.73-.46,1.59-.27,3.3.52,4.75l.82,1.49,6.01,10.94,10.94-6.01,1.49-.82c.72-.39,1.35-.93,1.86-1.57.51-.64.89-1.37,1.12-2.16.23-.79.3-1.61.21-2.43-.09-.81-.34-1.6-.73-2.32h0Z" fill="none" stroke="#fc4ade" stroke-linecap="round" stroke-linejoin="round" stroke-width="2"/>
    </g>
  </g>
</svg>