<?xml version="1.0" encoding="UTF-8"?>
<svg id="Camada_2" data-name="Camada 2" xmlns="http://www.w3.org/2000/svg" viewBox="0 0 138.32 111.12">
  <g id="Camada_1-2" data-name="Camada 1">
    <g>
      <path d="M119.61,97.91c11.21-.59,16.52,0,18.51-4.94,1.99-4.94-11.47-65.96-12.82-71.75-1.96-8.39-3.85-7.86-10.01-9.05,3.64,1.42,7.14,3.21,6.55,17.88l-2.23,67.86Z" fill="#1876f2"/>
      <path d="M11.53,102.96c-11.22-.42-10.47-3.67-10.28-7.32.2-3.65,6.74-69.75,7.59-76.28,1.06-8.16,3.56-7.8,9.72-9.25,6.16-1.45,99.12,1.5,101.49,4.29.3.36,1.28.83,1.53,4.98.95,15.8-2.38,70.11-2.9,79.96-.48,9.03-9.24,10.83-13.57,10.6-32.52.27-79.57-6.45-93.59-6.97Z" fill="#fff" stroke="#0054c2" stroke-linecap="round" stroke-linejoin="round" stroke-width="2.34"/>
      <path d="M107.42,11.07c-2.55-4.27-8.9-17.17-19.64-4.42-1.28,1.75-2.26,4.51.2,8.33,3.07,4.78,6.36,1.15,4.48-2.76-1.89-3.91-10.84-14.52-27.27-7.26M65.08,5.36c-1.91,1.53-5.76,6.99-.23,12.1,6.92,6.39,8.34-2.71,6.14-6.39-.89-1.48-3.03-3.82-5.91-5.71ZM65.08,5.36c-5.42-3.56-13.43-5.53-20.44,2.8M44.64,8.16c-1.28,1.75-2.26,4.51.2,8.33,3.07,4.78,6.36,1.15,4.48-2.76-.67-1.38-2.22-3.6-4.68-5.58ZM44.64,8.16c-4.48-3.6-11.98-6.37-22.59-1.68" fill="none" stroke="#0054c2" stroke-linecap="round" stroke-width="2.34"/>
      <path d="M26.9,27.16c0,.09,0,.18-1.48,10.44-1.47,10.26-4.41,30.67-7.44,51.7" fill="none" stroke="#e3eefc" stroke-linecap="round" stroke-width="2.34"/>
      <path d="M50.86,28.39l-4.48,66.58" fill="none" stroke="#e3eefc" stroke-linecap="round" stroke-width="2.34"/>
      <path d="M78.14,32.02c0,.09,0,.18-.9,11.5-.89,11.32-2.22,30.07-4.06,53.31" fill="none" stroke="#e3eefc" stroke-linecap="round" stroke-width="2.34"/>
      <path d="M103.11,32.16l-5.83,66.72" fill="none" stroke="#e3eefc" stroke-linecap="round" stroke-width="2.34"/>
      <path d="M17.98,44.83l88.77,3.59" fill="none" stroke="#e3eefc" stroke-linecap="round" stroke-width="2.34"/>
      <path d="M17.98,29.01l88.77,3.59" fill="none" stroke="#e3eefc" stroke-linecap="round" stroke-width="2.34"/>
      <path d="M14.76,59.13l93.96,4.03" fill="none" stroke="#e3eefc" stroke-linecap="round" stroke-width="2.34"/>
      <path d="M14.34,74.64l94.35,5.99" fill="none" stroke="#e3eefc" stroke-linecap="round" stroke-width="2.34"/>
      <path d="M101.78,98.46c-22.39-1.9-44.78-3.81-59.54-5.04-14.76-1.23-21.22-1.73-27.87-2.25" fill="none" stroke="#e3eefc" stroke-linecap="round" stroke-width="2.34"/>
      <path d="M78.16,70.18c.86,5.71,3.8,8.5,8.49,8.5,4.1,0,7.91-3.33,8.49-8.5,0-4.7-3.21-8.23-8.49-8.5-4.69,0-8.88,2.03-8.49,8.5Z" fill="#cd37b4"/>
    </g>
  </g>
</svg>