<?xml version="1.0" encoding="UTF-8"?>
<svg id="Camada_2" data-name="Camada 2" xmlns="http://www.w3.org/2000/svg" viewBox="0 0 226.83 96.21">
  <g id="Camada_1-2" data-name="Camada 1">
    <g>
      <path d="M226.43,29.33c-.72,1.05-2.14,1.32-3.19.6-12.81-8.73-32.36-20.74-54.12-24.31-21.07-3.45-41.38,1.86-54.41,14.22,5.39,4.27,7.63,13.42,1.31,16.35-6.08,2.82-15.11-5.21-8.32-15.27-9.46-4.45-21.24-2.19-29.58,2.57-10.65,6.09-18.65,16.37-25.92,26.39-.75,1.03-2.18,1.25-3.21.51-1.03-.75-1.25-2.18-.51-3.21,7.57-10.42,15.92-21.14,27.36-27.68,9.75-5.57,23.74-8.04,34.89-2.2C123.06,4.79,144.95-2.99,169.86,1.09c22.65,3.71,42.79,16.07,55.96,25.05,1.05.71,1.32,2.15.61,3.19ZM109.85,28.15c.02,2.22,2.45,4.7,4.23,3.88,2.8-1.3.26-6.65-2.44-8.74-1.01,1.44-1.8,3.1-1.79,4.86Z" fill="#e52c91"/>
      <path d="M6.7,43.31c0-1.6,1.98-2.36,3.05-1.18,13,14.31,28.31,26.05,45.51,34.9,7.99,4.12,17.48,7.87,25.65,3.98-4.62-9.68.91-16.91,7.48-15.14,2.53.68,4.05,2.76,4.05,4.26,0,5.02-2.8,9.23-6.68,12.07,6.43,8.41,20.47,9.99,25.18,10.28,16.03.99,32.49-1.38,47.59-6.86.91-.33,1.92.14,2.25,1.05.32.91-.14,1.92-1.05,2.25-15.55,5.65-32.5,8.09-49.01,7.07-6.64-.41-21.11-2.42-28.01-11.94-9.4,4.63-19.73.91-29.06-3.89-17.56-9.04-33.21-21.04-46.49-35.66-.31-.34-.46-.76-.46-1.18ZM88.92,70.36c-.59-1.46-3.44-1.66-4.74-.36-2.18,2.19-1.62,6.17-.25,9.16,2.86-2.2,4.91-5.29,5-8.81Z"/>
      <path d="M0,51.19c.17-2.29-.01-7.56,2.11-15.99.89-3.54,8.97,1.09,13.68.62.96-.1,1.82.61,1.92,1.57.12.96-.61,1.82-1.57,1.92-4.04.41-7.46-1.36-10.97-1.82-1.03,4.5-1.59,9.11-1.66,13.73-.02.97-.82,1.74-1.78,1.73-.96-.02-1.72-.8-1.72-1.75Z"/>
    </g>
  </g>
</svg>