<?xml version="1.0" encoding="UTF-8"?>
<svg id="Camada_2" data-name="Camada 2" xmlns="http://www.w3.org/2000/svg" viewBox="0 0 96.15 95.42">
  <g id="Camada_1-2" data-name="Camada 1">
    <path d="M75.27,8.95C53.36-6.4,23.45-1.53,8.44,19.9-6.6,41.29-.99,71.07,20.87,86.45c21.9,15.39,51.82,10.47,66.82-10.92,15.04-21.38,9.48-51.2-12.42-66.58ZM33.33,25.53c2.32-2.27,6.05-2.23,8.35.09,2.27,2.32,2.23,6.05-.09,8.35-2.32,2.27-6.05,2.23-8.31-.09-2.3-2.33-2.27-6.06.06-8.36ZM62.1,61.81c-9.54,7.3-23.09,7.98-33.7.46-1.3-.94-1.59-2.73-.65-4.03.9-1.3,2.73-1.59,4.03-.65,8.08,5.76,18.92,5.62,26.84-.37,1.26-.96,3.06-.74,4.06.53.95,1.26.69,3.09-.57,4.05ZM68.68,39.37c-2.32,2.27-6.05,2.23-8.35-.09-2.27-2.32-2.23-6.05.09-8.31,2.29-2.31,6.06-2.27,8.32.05,2.3,2.33,2.27,6.06-.06,8.36Z" fill="#047aff"/>
  </g>
</svg>