<?xml version="1.0" encoding="UTF-8"?>
<svg id="Camada_2" data-name="Camada 2" xmlns="http://www.w3.org/2000/svg" viewBox="0 0 139.38 136.88">
  <g id="Camada_1-2" data-name="Camada 1">
    <g>
      <path d="M2.91,80.82c15.34,43.85,43.03,61.58,80.65,54.57,32.9-6.13,58.54-38.18,55.59-79.95C132.23,18.3,101.27-4.89,58.5.88,20.88,7.89-9.77,30.21,2.91,80.82Z" fill="#e3eefc"/>
      <path d="M47.72,106.56c-2.05,0-4.09-.62-5.8-1.79-2.22-1.52-3.77-3.91-4.26-6.55l-4.58-24.57c-.5-2.68.07-5.39,1.62-7.65,1.52-2.22,3.91-3.77,6.55-4.26l8.57-1.6,7.69-32.27c.28-1.18,1.23-2.08,2.42-2.31,3.63-.68,7.29.1,10.32,2.18,3.04,2.08,5.08,5.22,5.76,8.85l2.05,11.02,16.85-3.14c1.4-.28,2.92-.25,4.35.1,1.43.35,2.8,1.02,3.95,1.93,1.15.92,2.11,2.09,2.77,3.4.66,1.31,1.03,2.78,1.08,4.25l1.04,32.51c.08,2.46-.73,4.86-2.27,6.77-1.56,1.92-3.75,3.2-6.18,3.63l-39.57,7.37s0,0-.01,0l-10.53,1.96c-.61.12-1.23.17-1.85.17ZM49.89,66.37l-7.52,1.4c-1.05.2-2,.82-2.61,1.7-.61.88-.84,2-.64,3.05l4.58,24.58c.19,1.05.81,2,1.7,2.61s2,.84,3.04.64l7.52-1.4-6.07-32.58ZM55.48,62.86l6.51,34.96,36.58-6.81c1-.18,1.87-.69,2.5-1.45.61-.76.94-1.72.91-2.7l-1.04-32.5c-.02-.58-.17-1.17-.43-1.69-.26-.52-.64-.99-1.1-1.36-.46-.37-1-.63-1.57-.77-.57-.14-1.17-.15-1.75-.04l-19.91,3.71c-1.7.32-3.27-.79-3.58-2.46l-2.62-14.04c-.37-2.01-1.51-3.75-3.19-4.9-1.13-.78-2.46-1.23-3.82-1.32l-7.48,31.38Z" fill="#1876f2"/>
    </g>
  </g>
</svg>