<?xml version="1.0" encoding="UTF-8"?>
<svg id="Camada_2" data-name="Camada 2" xmlns="http://www.w3.org/2000/svg" viewBox="0 0 144.54 103">
  <g id="Camada_1-2" data-name="Camada 1">
    <g>
      <path d="M123.08,102.84c.05-.63-.09-2.01,0-3.36l.93-1.34c8.12.79,16.04-.71,15.37-10.6-.11-22.29.16-45.87,1.54-68.31.21-13.64-2.65-15.34-15.85-15.54-28.58-.44-57.07-.17-85.66.92-8.55.06-17.09-.06-25.62-.58-6.74.28-8.81,4.27-8.96,10.48-.58,24.25-.57,48.9-.13,73.24.12,6.5,3.91,9.14,10.06,9.66,15.07.08,30.09.22,45.06.42l1.4.98c-.06.67.14,1.9,0,3.36l-48.68-.75c-6.02-.73-11.62-5.34-11.87-11.66,1.65-24.78-2.1-52.19,0-76.66C1.29,5.8,4.52.25,12.43,0h119.76c5.91.3,11.37,3.73,12.36,9.83l-.61,79.92c-1.33,10.86-11.12,14.05-20.85,13.1Z" fill="#003375"/>
      <path d="M22.07,26.44c4.7-.48,29.44-.89,31.81,2.08.62.78,1.21,5.42,1.3,6.76.53,7.56.45,18.66,0,26.27-.09,1.5-.63,7.33-1.35,8.06-2.14,2.16-22.04,2.59-25.94,2.36-2.5-.15-10.78-.88-12.05-2.74-.77-1.13-1.62-8.49-1.73-10.36-.33-5.31-.7-25.47.88-29.42,1.14-2.87,4.43-2.73,7.08-3ZM51.76,30.3c-11.24-1.55-22.75-2.18-33.97-.08-1.82,12.41-1.12,25.21.44,37.62l33.57.06-.04-37.6Z" fill="#003374"/>
      <path d="M86.43,53.11c-.73-.21-1.25-1.54-1-2.34.76-2.43,10.16-.27,12.43-.29,9.03-.09,18.45-1.5,27.61-.76,4.69.38,2.83,3.39,1.98,3.39h-41.02Z" fill="#003375"/>
      <path d="M86.43,58.49c-.92-.26-1.19-1.79-1.01-2.68,13.8-.46,27.51-.92,41.35,0,2.62.47,1.46,2.68.68,2.68h-41.02Z" fill="#003375"/>
      <path d="M73.13,27.71c9.53-2.07,9.75,13.12.58,11.95-6-.77-6.49-10.66-.58-11.95Z" fill="#003375"/>
      <path d="M73.83,49.19c7.53-1.22,9.59,11.34,1.07,11.78-6.57.34-8.55-10.57-1.07-11.78Z" fill="#003375"/>
      <path d="M50.11,79.32c.12.03,1.67,1.56,1.67,1.68.06,3.13-10.38,1.01-12.4.98-7.12-.13-14.23.83-21.23.38-1.58-1.08-.42-3.04,1.02-3.04h30.94Z" fill="#003374"/>
      <path d="M85.42,32.28c-.27-.78.3-2.69,1.01-2.69h28.25c1.16,0,1.16,2.69,0,2.69h-29.25Z" fill="#003374"/>
      <path d="M18.51,84.7h15.47c.34,0,5.49.83,5.74.99,1.29.83.14,2.37-.36,2.37h-20.85c-1.03,0-1.56-2.76,0-3.36Z" fill="#003375"/>
      <path d="M108.62,61.18c1.47.42,1.96,3.14-1.21,3.12-7.24-.05-14.78-.76-21.99-.44-.28-.75.29-2.68,1.01-2.68h22.19Z" fill="#003374"/>
      <path d="M99.88,34.97c.81.23,1.39,2.11,1.01,2.68-.67,1.01-14.8,1-15.46,0-.38-.57.32-2.68,1.01-2.68,2.96,0,11.34-.6,13.45,0Z" fill="#003375"/>
      <path d="M34.12,10.2c2.62-.71,5.31,2.35,3.59,4.98-3.5,5.37-9.4-3.4-3.59-4.98Z" fill="#944cdb"/>
      <path d="M25.39,10.22c5.1-.73,4.88,8.06-.52,6.32-3.17-1.02-2.77-5.85.52-6.32Z" fill="#38bdf9"/>
      <path d="M15.96,10.2c2.37-.55,5.19,2.55,3.61,4.97-3.62,5.51-9.33-3.63-3.61-4.97Z" fill="#003374"/>
      <path d="M48.27,56.98c-2.56,2.33-25.38,2.08-28.06-.19-1.04-.88-1.23-2.06-1.38-3.33-.43-3.72-.51-14.56-.02-18.19.35-2.63,1.94-3.26,4.46-3.6,2.44-.33,7.52-.72,10-.76,2.68-.04,12.93.38,14.47,1.73,2.74,2.41,3.38,21.74.53,24.34ZM46.35,55.06c1.09-3.34,1.34-18.37-.87-20.16-1.16-.94-16.87-.83-19.6-.63-.98.07-2.89.15-3.51.87-1.32,1.53-1.35,18.23.27,19.38.55.4,9.14,1.27,10.64,1.31,4.46.12,8.67-.57,13.07-.77Z" fill="#003375"/>
      <path d="M41.69,45.73c-.48-.32-4.75,2.73-5.08,3.36-.57,1.1,1.63,4.47.38,5.37-2.85,2.06-4.82-9.64-7.06-10.75-1.08,1.07-4.54,9.22-6.38,7.39-1.2-1.19,4.36-10.29,5.84-10.67,3.34-.86,4.2,4.27,5.94,5.97,1.61.38,2.82-4.37,6.57-3.25,1.19.36,4.67,4.25,4.4,5.5-.78,3.74-4.28-.57-4.61-2.92Z" fill="#003374"/>
      <path d="M40.27,41.59c-2.66,1.69-6.16-2.52-3.28-4.3,3.17-1.96,5.19,3.08,3.28,4.3Z" fill="#003374"/>
    </g>
  </g>
</svg>