<?xml version="1.0" encoding="UTF-8"?>
<svg id="Camada_2" data-name="Camada 2" xmlns="http://www.w3.org/2000/svg" viewBox="0 0 72.98 50.22">
  <g id="Camada_1-2" data-name="Camada 1">
    <g>
      <path d="M52.02,42.89c-.28.27-1.43.41-1.98-.66-1.1-2.1-1.46-5.1-3.16-7.65-3.38-5.07-10.83-9.69-16.8-10.65,2.47-2.93,7.1-2.62,10.69-4.77,7.22-4.34,6.6-12.36,9.78-19.15,2.03,13.91,10.34,18.79,22.44,23.44-7.69,3.86-13.56,5.83-18.59,13.32-1.17,1.74-2.14,5.9-2.37,6.13Z" fill="#fc4ade"/>
      <path d="M24.95,38.26l-9,4.46-2.99,7.5c-3.16-1.91-2.04-5.95-4.91-8.55-2.1-1.9-5.3-2.43-8.06-2.43,1.8-2.96,6.04-2.44,8.43-5.03,2.03-2.21,2.51-8.25,4.06-8.92,1.6,7.27,4.67,11.93,12.47,12.98Z" fill="#fc4ade"/>
    </g>
  </g>
</svg>