<?xml version="1.0" encoding="UTF-8"?>
<svg id="Camada_2" data-name="Camada 2" xmlns="http://www.w3.org/2000/svg" viewBox="0 0 112.41 121.83">
  <g id="Camada_1-2" data-name="Camada 1">
    <g>
      <path d="M110.47,51.08c-3.88-14.5-13.18-26.61-26.18-34.11-1.29-.75-2.94-.3-3.69.99l-25.39,43.98L11.24,36.55c-.62-.36-1.36-.45-2.05-.27-.69.19-1.28.64-1.64,1.26C.05,50.53-1.95,65.67,1.94,80.17c3.88,14.5,13.18,26.61,26.18,34.11,8.66,5,18.26,7.55,28,7.55,4.88,0,9.79-.64,14.63-1.94,14.5-3.88,26.61-13.18,34.11-26.18,7.5-13,9.5-28.14,5.61-42.63ZM100.18,91.02c-6.78,11.75-17.73,20.15-30.84,23.66-13.1,3.51-26.79,1.71-38.53-5.07-11.75-6.78-20.15-17.73-23.66-30.84-3.28-12.23-1.93-24.97,3.78-36.16l43.92,25.36c.62.36,1.36.45,2.05.27.69-.19,1.28-.64,1.64-1.26l25.36-43.92c22.46,14.6,29.83,44.49,16.29,67.96Z" fill="#047aff"/>
      <path d="M13.69,30.62l36.94,21.33c.43.25.89.36,1.35.36.93,0,1.84-.48,2.34-1.35l21.93-37.99c.74-1.29.31-2.93-.98-3.68C60.61.73,48.05-1.93,37.95,1.38c-10.05,3.29-18.58,11.94-25.33,25.72-.63,1.28-.16,2.82,1.07,3.53Z" fill="#e5308f"/>
    </g>
  </g>
</svg>