<?xml version="1.0" encoding="UTF-8"?>
<svg id="Camada_2" data-name="Camada 2" xmlns="http://www.w3.org/2000/svg" viewBox="0 0 224.1 132.44">
  <g id="Camada_1-2" data-name="Camada 1">
    <g>
      <path d="M205.63,0h-22.5C193.33,0,201.6,8.27,201.6,18.47v95.5c0,10.2-8.27,18.47-18.47,18.47h22.5c10.2,0,18.47-8.27,18.47-18.47V18.47C224.1,8.27,215.83,0,205.63,0Z" fill="#fd91eb" opacity=".3"/>
      <path d="M183.13,0h-22.5C170.83,0,179.1,8.27,179.1,18.47v95.5c0,10.2-8.27,18.47-18.47,18.47h22.5c10.2,0,18.47-8.27,18.47-18.47V18.47C201.6,8.27,193.33,0,183.13,0Z" fill="#fd91eb" opacity=".5"/>
      <rect width="156.6" height="132.44" rx="19.53" ry="19.53" fill="#fd91eb"/>
      <path d="M160.63,0h-22.5C148.33,0,156.6,8.27,156.6,18.47v95.5c0,10.2-8.27,18.47-18.47,18.47h22.5c10.2,0,18.47-8.27,18.47-18.47V18.47C179.1,8.27,170.83,0,160.63,0Z" fill="#fd91eb" opacity=".8"/>
    </g>
  </g>
</svg>