<?xml version="1.0" encoding="UTF-8"?>
<svg id="Camada_2" data-name="Camada 2" xmlns="http://www.w3.org/2000/svg" viewBox="0 0 222.65 132.44">
  <g id="Camada_1-2" data-name="Camada 1">
    <g>
      <path d="M204.18,0h-22.5C191.88,0,200.15,8.27,200.15,18.47v95.5c0,10.2-8.27,18.47-18.47,18.47h22.5c10.2,0,18.47-8.27,18.47-18.47V18.47C222.65,8.27,214.38,0,204.18,0Z" fill="#e5308f" opacity=".3"/>
      <path d="M181.68,0h-22.5C169.38,0,177.65,8.27,177.65,18.47v95.5c0,10.2-8.27,18.47-18.47,18.47h22.5c10.2,0,18.47-8.27,18.47-18.47V18.47C200.15,8.27,191.88,0,181.68,0Z" fill="#e5308f" opacity=".5"/>
      <rect width="156.6" height="132.44" rx="21.84" ry="21.84" fill="#e5308f"/>
      <path d="M159.18,0h-22.5C146.89,0,155.15,8.27,155.15,18.47v95.5c0,10.2-8.27,18.47-18.47,18.47h22.5c10.2,0,18.47-8.27,18.47-18.47V18.47C177.65,8.27,169.38,0,159.18,0Z" fill="#e5308f" opacity=".8"/>
    </g>
  </g>
</svg>