<?xml version="1.0" encoding="UTF-8"?>
<svg id="Camada_2" data-name="Camada 2" xmlns="http://www.w3.org/2000/svg" viewBox="0 0 244.3 144.38">
  <g id="Camada_1-2" data-name="Camada 1">
    <g>
      <path d="M224.17,0h-24.53C210.76,0,219.77,9.01,219.77,20.13v104.11c0,11.12-9.01,20.13-20.13,20.13h24.53c11.12,0,20.13-9.01,20.13-20.13V20.13C244.3,9.01,235.28,0,224.17,0Z" fill="#c9bfd6"/>
      <path d="M199.64,0h-24.53C186.23,0,195.25,9.01,195.25,20.13v104.11c0,11.12-9.01,20.13-20.13,20.13h24.53c11.12,0,20.13-9.01,20.13-20.13V20.13C219.77,9.01,210.76,0,199.64,0Z" fill="#a493ba"/>
      <rect width="170.72" height="144.38" rx="20.39" ry="20.39" fill="#492775"/>
      <path d="M175.11,0h-24.53C161.71,0,170.72,9.01,170.72,20.13v104.11c0,11.12-9.01,20.13-20.13,20.13h24.53c11.12,0,20.13-9.01,20.13-20.13V20.13C195.25,9.01,186.23,0,175.11,0Z" fill="#6d5291"/>
    </g>
  </g>
</svg>